<?xml version="1.0" standalone="no"?><!DOCTYPE svg PUBLIC "-//W3C//DTD SVG 1.1//EN" "http://www.w3.org/Graphics/SVG/1.1/DTD/svg11.dtd"><svg t="1680427734377" class="icon" viewBox="0 0 1024 1024" version="1.1" xmlns="http://www.w3.org/2000/svg" p-id="4158" xmlns:xlink="http://www.w3.org/1999/xlink" width="16" height="16"><path d="M352.109315 393.873723v-39.423944c0-21.723398 17.846832-39.350801 39.935943-39.350801 21.942826 0 39.8628 17.554261 39.8628 39.350801v39.423944h39.935943c21.942826 0 39.8628 17.554261 39.862801 39.350801a39.643372 39.643372 0 0 1-39.862801 39.423944h-39.935943V511.999269a39.643372 39.643372 0 0 1-39.8628 39.3508A39.643372 39.643372 0 0 1 352.109315 511.999269v-39.350801h-39.8628a39.643372 39.643372 0 0 1-39.935943-39.423944c0-21.723398 17.846832-39.350801 39.935943-39.350801h39.8628z m-39.8628-236.324234H192.511829a39.643372 39.643372 0 0 0-39.8628 39.350801v708.972702c0 21.723398 17.846832 39.350801 39.8628 39.350801h638.389945a39.643372 39.643372 0 0 0 39.8628-39.350801V196.90029a39.643372 39.643372 0 0 0-39.8628-39.350801 39.643372 39.643372 0 0 1-39.935943-39.423943c0-21.723398 17.846832-39.350801 39.935943-39.350801 66.047906 0 119.661543 52.88221 119.661544 118.125545v708.972702c0 65.243335-53.613638 118.125546-119.661544 118.125545H192.511829A118.930116 118.930116 0 0 1 72.850286 905.872992V196.90029C72.850286 131.656955 126.463923 78.774745 192.511829 78.774745h119.734686C312.246515 35.254807 347.867036 0 391.972116 0h239.396229c44.10508 0 79.798743 35.254807 79.798743 78.774745v78.774744c0 43.519938-35.693663 78.774745-79.7256 78.774745H391.972116c-44.10508 0-79.798743-35.254807-79.798744-78.774745z m79.725601 0h239.396229V78.774745H392.045258v78.774744z m-79.725601 472.575325h239.323087c22.089111 0 39.935943 17.627403 39.935943 39.423944a39.643372 39.643372 0 0 1-39.935943 39.350801H312.246515a39.643372 39.643372 0 0 1-39.935943-39.350801c0-21.79654 17.846832-39.423944 39.935943-39.423944z m0 157.549489h398.920573c22.089111 0 39.935943 17.627403 39.935943 39.423944a39.643372 39.643372 0 0 1-39.935943 39.350801H312.246515a39.643372 39.643372 0 0 1-39.935943-39.350801c0-21.79654 17.846832-39.423944 39.935943-39.423944z" fill="#ffffff" p-id="4159"></path></svg>