<?xml version="1.0" standalone="no"?><!DOCTYPE svg PUBLIC "-//W3C//DTD SVG 1.1//EN" "http://www.w3.org/Graphics/SVG/1.1/DTD/svg11.dtd"><svg t="1680266936569" class="icon" viewBox="0 0 1024 1024" version="1.1" xmlns="http://www.w3.org/2000/svg" p-id="2973" xmlns:xlink="http://www.w3.org/1999/xlink" width="16" height="16"><path d="M951.997 548.314a8 8 0 0 1 8 8v35c0 142.158-114.09 257.669-255.7 259.965l-4.3 0.035H189.813l54.432 54.431a8 8 0 0 1 0 11.314l-39.598 39.598a8 8 0 0 1-11.314 0L70.296 833.62c-6.248-6.248-6.248-16.379 0-22.627L198.99 682.299l50.911 50.912-46.1 46.103h496.196c102.791 0 186.314-82.496 187.975-184.891l0.025-3.11v-35a8 8 0 0 1 8-8h56zM441.583 350a8 8 0 0 1 6.77 3.737L578 559.646 578 358a8 8 0 0 1 8-8h56a8 8 0 0 1 8 8v308a8 8 0 0 1-8 8h-59.583a8 8 0 0 1-6.77-3.737L446 464.353V666a8 8 0 0 1-8 8h-56a8 8 0 0 1-8-8V358a8 8 0 0 1 8-8h59.583zM830.664 67.657l123.037 123.036c6.248 6.249 6.248 16.38 0 22.628L825.007 342.014l-50.912-50.911L820.196 245H324c-102.791 0-186.315 82.495-187.975 184.891L136 433v35a8 8 0 0 1-8 8H72a8 8 0 0 1-8-8v-35c0-142.158 114.09-257.67 255.7-259.965L324 173h510.184l-54.432-54.431a8 8 0 0 1 0-11.314l39.598-39.598a8 8 0 0 1 11.314 0z" fill="#ffffff" p-id="2974"></path></svg>