<?xml version="1.0" standalone="no"?><!DOCTYPE svg PUBLIC "-//W3C//DTD SVG 1.1//EN" "http://www.w3.org/Graphics/SVG/1.1/DTD/svg11.dtd"><svg t="1680496021067" class="icon" viewBox="0 0 1024 1024" version="1.1" xmlns="http://www.w3.org/2000/svg" p-id="2757" xmlns:xlink="http://www.w3.org/1999/xlink" width="16" height="16"><path d="M987.136 781.653333H36.864c-21.333333 0-36.864 15.104-36.864 35.84 0 18.858667 15.530667 35.84 36.864 35.84h950.272c19.413333 0 36.864-15.104 36.864-35.84s-15.530667-35.84-36.864-35.84zM64 623.317333l215.253333-211.2 224.981334 218.752c13.568 13.226667 34.901333 13.226667 48.512 0 0 0 1.92 0 1.92-1.877333l387.84-379.008v126.293333c0 18.901333 15.573333 35.84 36.906666 35.84 19.370667 0 36.821333-15.061333 36.821334-35.84V166.997333c0-18.858667-9.685333-32.042667-23.253334-35.84a33.28 33.28 0 0 0-23.296-1.877333H764.16c-19.370667 0-36.864 15.104-36.864 35.84 0 18.858667 15.530667 35.84 36.864 35.84h124.16l-362.666667 354.474667L302.506667 338.56V336.64h-1.962667c-9.685333-9.429333-25.173333-13.226667-36.821333-7.552a31.488 31.488 0 0 0-13.568 7.552L11.648 570.453333a35.754667 35.754667 0 0 0 0 52.778667c15.488 15.104 38.784 15.104 52.352 0z" fill="#000000" p-id="2758"></path></svg>