<?xml version="1.0" standalone="no"?><!DOCTYPE svg PUBLIC "-//W3C//DTD SVG 1.1//EN" "http://www.w3.org/Graphics/SVG/1.1/DTD/svg11.dtd"><svg t="1680194074392" class="icon" viewBox="0 0 1024 1024" version="1.1" xmlns="http://www.w3.org/2000/svg" p-id="3473" xmlns:xlink="http://www.w3.org/1999/xlink" width="16" height="16"><path d="M585.216 919.552v-60.416c0-10.24 6.144-16.384 16.384-16.384h17.408c84.992 0 156.672-71.68 156.672-156.672v-5.12h-52.736c-0.512 0-2.048-0.512-3.072-1.024-1.024-0.512-2.56-1.024-3.584-1.024-0.512-2.56 0-5.12 2.048-7.168l95.232-108.032c6.656-6.656 16.896-6.144 23.04 0l95.744 108.544c1.536 1.536 2.56 2.56 2.56 3.072v2.048c0 5.632-2.048 7.68-7.68 7.68h-61.44v5.12c0 135.68-110.592 246.272-246.272 246.272h-17.408c-10.24-0.512-16.896-6.656-16.896-16.896z m358.912-488.448c0 23.04-19.456 42.496-42.496 42.496h-320.512c-23.04 0-42.496-19.456-42.496-42.496v-307.2c0-23.04 19.456-42.496 42.496-42.496h320.512c23.04 0 42.496 19.456 42.496 42.496v307.2z m-79.872-276.48h-245.76v245.76h245.76v-245.76zM493.056 885.248c0 23.04-19.456 42.496-42.496 42.496H130.048c-23.04 0-42.496-19.456-42.496-42.496v-307.712c0-23.04 19.456-42.496 42.496-42.496H450.56c23.04 0 42.496 19.456 42.496 42.496v307.712z m-79.872-276.992h-245.76v245.76h245.76v-245.76z m15.36-532.48h-17.408c-135.68 0-246.272 110.592-246.272 246.272v5.12h-61.44c-6.144 0-7.68 8.192-7.68 12.288v2.048s1.536 1.536 2.56 3.072L194.56 453.12c6.144 6.144 16.384 6.144 23.04 0L312.32 344.576c1.536-1.536 2.048-3.072 2.048-5.12s-0.512-4.096-1.536-5.12c-2.048-2.048-3.584-4.096-4.096-5.632-0.512-0.512-0.512-1.024-1.024-1.536H254.464v-5.12c0-84.992 71.68-156.672 156.672-156.672h17.408c10.24 0 16.384-6.144 16.384-16.384v-56.32c0.512-10.24-6.144-16.896-16.384-16.896z" fill="#ffffff" p-id="3474" data-spm-anchor-id="a313x.7781069.0.i4" class="selected"></path></svg>